Zombieland TS XVID



screens + 42 screenshots: 
http://www.cmylink.com/Zombieland




In the horror comedy Zombieland focuses on two men who have found a way to survive a world overrun by zombies. Columbus is a big wuss -- but when you're afraid of being eaten by zombies, fear can keep you alive. Tallahassee is an AK-toting, zombie-slaying' bad ass whose single determination is to get the last Twinkie on earth. As they join forces with Wichita and Little Rock, who have also found unique ways to survive the zombie mayhem, they will have to determine which is worse: relying on each other or succumbing to the zombies.


Cast:

	Jesse Eisenberg	 ... 	Columbus

	Woody Harrelson	... 	Tallahassee

	Emma Stone	... 	Wichita
	Abigail Breslin	... 	Little Rock

	Amber Heard	... 	406

	Bill Murray	... 	Himself
	Derek Graf	... 	Clown Zombie



Director: Ruben Fleischer
Writers (WGA): Rhett Reese & Paul Wernick 
Release Date: 25 November 2009 
Genre: Action | Comedy | Horror 
 

Ripper ...........:IMAGiNE 
IMDB Rating.......:8.5/10
Video Codec.......:XVID 
Release Date......:05/10/09
Audio Codec.......:MP3 
Theatre Date......:25/09/09
Audio Bitrate.....:160 
Runtime...........:1h 22mn
Subtitles.........:NIL 
Language..........:ENGLISH
Resolution.....,..:688 x 304 
IMDb URL..........:http://www.imdb.com/title/tt1156398


DETAILS:

Video
ID : 0
Format : MPEG-4 Visual
Format profile : AdvancedSimple@L5
Format settings, BVOP : Yes
Format settings, QPel : No
Format settings, GMC : No warppoints
Format settings, Matrix : Default (H.263)
Codec ID : XVID
Codec ID/Hint : XviD
Duration : 1h 22mn
Bit rate : 2 205 Kbps
Width : 688 pixels
Height : 304 pixels
Display aspect ratio : 2.25:1
Frame rate : 23.976 fps
Resolution : 24 bits
Colorimetry : 4:2:0
Scan type : Progressive
Bits/(Pixel*Frame) : 0.440
Stream size : 1.27 GiB (93%)
Writing library : XviD 1.2.1 (UTC 2008-12-04)

Audio
ID : 1
Format : MPEG Audio
Format version : Version 1
Format profile : Layer 3
Codec ID : 55
Codec ID/Hint : MP3
Duration : 1h 22mn
Bit rate mode : Constant
Bit rate : 160 Kbps
Channel(s) : 2 channels
Sampling rate : 44.1 KHz
Resolution : 16 bits
Stream size : 94.5 MiB (7%)
Alignment : Split accross interleaves
Interleave, duration : 42 ms (1.00 video frame)
Interleave, preload duration : 500 ms



.